<!DOCTYPE svg PUBLIC "-//W3C//DTD SVG 1.1//EN" "http://www.w3.org/Graphics/SVG/1.1/DTD/svg11.dtd">
<!-- Uploaded to: SVG Repo, www.svgrepo.com, Transformed by: SVG Repo Mixer Tools -->
<svg width="800px" height="800px" viewBox="0 0 36 36" xmlns="http://www.w3.org/2000/svg" xmlns:xlink="http://www.w3.org/1999/xlink" aria-hidden="true" role="img" class="iconify iconify--twemoji" preserveAspectRatio="xMidYMid meet" fill="#000000">
<g id="SVGRepo_bgCarrier" stroke-width="0"/>
<g id="SVGRepo_tracerCarrier" stroke-linecap="round" stroke-linejoin="round"/>
<g id="SVGRepo_iconCarrier">
<circle fill="#26a269" cx="18" cy="18" r="18"/>
<circle fill="#2ec27e" cx="18" cy="18" r="14.5"/>
<circle fill="#F5F8FA" cx="18" cy="18" r="13"/>
<path fill="#CCD6DD" d="M18 8l1.531 6.304l5.54-3.375l-3.375 5.54L28 18l-6.304 1.531l3.375 5.54l-5.54-3.375L18 28l-1.531-6.304l-5.54 3.375l3.375-5.54L8 18l6.304-1.531l-3.375-5.54l5.54 3.375z"/>
<path fill="#292F33" d="M17.343 20.748l8.777 5.381l-5.379-8.778z"/>
<path fill="#813d9c" d="M18.657 15.267L9.879 9.886l5.38 8.779z"/>
<circle fill="#8899A6" cx="18" cy="18.008" r="3.055"/>
<circle fill="#F5F8FA" cx="18" cy="18.008" r="1.648"/>
</g>
</svg>